#!OML:ASF X:\für Bonn\!DataBase\2005_08_12_Daniel\c3d\Daniel.ASF
:FULLY-SPECIFIED
:DEGREES
168
root -3.39768 17.096 -2.84481 319.637 -80.8308 -328.016
lowerback 20.1591 -3.28307 -2.91643
upperback 0.327127 -5.44646 -2.84558
thorax -10.976 -2.53762 0.111019
lowerneck 2.88683 2.04844 -4.88303
upperneck 4.73057 2.53431 0.859737
head 0.90357 1.16072 1.07462
rclavicle 1.66513e-014 5.56597e-015
rhumerus 58.0726 0.505981 -99.5828
rradius 9.06696
rwrist 65.8196
rhand -17.8032 11.3187
rfingers 7.12502
rthumb 8.46026 -18.4918
lclavicle 1.66513e-014 5.56597e-015
lhumerus 60.5549 1.4699 95.6445
lradius 9.0877
lwrist -66.2638
lhand -14.7786 5.86534
lfingers 7.12502
lthumb 11.3783 35.5366
rfemur -0.294247 2.09623 11.8757
rtibia 32.3992
rfoot -30.2637 -11.2811
rtoes -15.0638
lfemur -9.78999 -10.3494 -21.2868
ltibia 36.2167
lfoot -21.6011 -0.922165
ltoes -0.333676
169
root -3.41672 17.1219 -2.84617 319.295 -80.8191 -327.488
lowerback 19.6445 -3.26667 -3.00654
upperback 0.265789 -5.42434 -2.87857
thorax -10.7512 -2.52947 0.0895562
lowerneck 3.05902 2.06557 -4.83636
upperneck 4.78036 2.54646 0.839411
head 0.890588 1.1651 1.05828
rclavicle 3.81139e-014 6.36111e-015
rhumerus 58.1493 0.601055 -99.582
rradius 8.91797
rwrist 65.5796
rhand -17.9613 11.3659
rfingers 7.12502
rthumb 8.30765 -18.4507
lclavicle 3.81139e-014 6.36111e-015
lhumerus 60.5882 1.45585 95.7284
lradius 9.0034
lwrist -66.3967
lhand -14.5697 6.08345
lfingers 7.12502
lthumb 11.5797 35.7435
rfemur 0.280863 4.17939 12.4855
rtibia 31.4225
rfoot -31.2838 -13.0036
rtoes -14.8342
lfemur -9.46949 -11.4617 -21.5543
ltibia 35.6109
lfoot -21.8482 0.271156
ltoes -0.48389
170
root -3.43435 17.1425 -2.84713 318.902 -80.8044 -326.921
lowerback 19.1451 -3.2474 -3.08173
upperback 0.221846 -5.39608 -2.92488
thorax -10.5178 -2.52021 0.0442612
lowerneck 3.18335 2.06717 -4.78888
upperneck 4.84698 2.54079 0.831877
head 0.891258 1.16065 1.04677
rclavicle 4.7699e-014 2.62396e-014
rhumerus 58.301 0.69729 -99.5964
rradius 8.6886
rwrist 65.3455
rhand -18.1013 11.3906
rfingers 7.12502
rthumb 8.17254 -18.4314
lclavicle 4.7699e-014 2.62396e-014
lhumerus 60.6744 1.40696 95.8211
lradius 8.89093
lwrist -66.4132
lhand -14.3501 6.32381
lfingers 7.12502
lthumb 11.7915 35.9719
rfemur 0.832151 6.31923 13.0974
rtibia 30.5539
rfoot -32.4325 -14.6884
rtoes -14.5547
lfemur -9.198 -12.5217 -21.8208
ltibia 35.1021
lfoot -22.1055 1.41211
ltoes -0.664992
171
root -3.45053 17.1603 -2.84825 318.596 -80.7899 -326.453
lowerback 18.6685 -3.23662 -3.17839
upperback 0.190162 -5.37892 -2.9349
thorax -10.2771 -2.51395 0.0548057
lowerneck 3.2616 2.08313 -4.77977
upperneck 4.90186 2.5569 0.806413
head 0.895203 1.16671 1.03658
rclavicle 6.43084e-014 1.07344e-014
rhumerus 58.5126 0.849912 -99.5774
rradius 8.37569
rwrist 65.1479
rhand -18.3043 11.3472
rfingers 7.12502
rthumb 7.97661 -18.4823
lclavicle 6.43084e-014 1.07344e-014
lhumerus 60.779 1.40347 95.9479
lradius 8.81513
lwrist -66.4033
lhand -14.0829 6.5722
lfingers 7.12502
lthumb 12.0492 36.2053
rfemur 1.36387 8.48852 13.7334
rtibia 29.7876
rfoot -33.6962 -16.3207
rtoes -13.9328
lfemur -8.96655 -13.532 -22.0622
ltibia 34.6668
lfoot -22.3769 2.48291
ltoes -0.818905
172
root -3.46617 17.176 -2.8487 318.172 -80.7972 -325.869
lowerback 18.1996 -3.21099 -3.25273
upperback 0.165675 -5.33929 -2.96639
thorax -10.0372 -2.49913 0.0240978
lowerneck 3.30046 2.07862 -4.73292
upperneck 4.98994 2.54899 0.786162
head 0.917063 1.16102 1.0226
rclavicle -1.38777e-014 -4.49253e-014
rhumerus 58.7081 0.962293 -99.5743
rradius 8.0879
rwrist 65.0127
rhand -18.4558 11.229
rfingers 7.12502
rthumb 7.83041 -18.6059
lclavicle -1.38777e-014 -4.49253e-014
lhumerus 60.8971 1.3831 96.044
lradius 8.72602
lwrist -66.3576
lhand -13.8311 6.7854
lfingers 7.12502
lthumb 12.2919 36.4041
rfemur 1.87969 10.7566 14.3904
rtibia 29.1126
rfoot -35.0956 -17.8781
rtoes -13.0894
lfemur -8.76555 -14.4884 -22.2962
ltibia 34.3023
lfoot -22.659 3.47936
ltoes -0.872489
173
root -3.48007 17.1895 -2.84978 317.853 -80.7896 -325.395
lowerback 17.7622 -3.19959 -3.3118
upperback 0.138144 -5.31689 -3.00235
thorax -9.81977 -2.4927 -0.0131673
lowerneck 3.35775 2.08581 -4.64686
upperneck 5.0712 2.55729 0.739491
head 0.933958 1.16392 0.993246
rclavicle -1.6597e-014 -1.19271e-014
rhumerus 58.8258 1.08752 -99.5911
rradius 7.88437
rwrist 64.9132
rhand -18.5388 11.0641
rfingers 7.12502
rthumb 7.75035 -18.7739
lclavicle -1.6597e-014 -1.19271e-014
lhumerus 61.0174 1.3676 96.1276
lradius 8.6088
lwrist -66.2869
lhand -13.5858 6.98236
lfingers 7.12502
lthumb 12.5285 36.5868
rfemur 2.35954 12.9897 15.0541
rtibia 28.5346
rfoot -36.6061 -19.4007
rtoes -12.394
lfemur -8.61562 -15.2785 -22.4927
ltibia 33.9889
lfoot -22.885 4.33641
ltoes -0.963572
174
root -3.49194 17.2006 -2.85005 317.466 -80.7939 -324.891
lowerback 17.407 -3.18195 -3.34317
upperback 0.110872 -5.28617 -3.04965
thorax -9.65209 -2.48267 -0.0749843
lowerneck 3.41321 2.08398 -4.59217
upperneck 5.15024 2.55179 0.735512
head 0.95006 1.15991 0.982756
rclavicle 5.33232e-014 4.01545e-014
rhumerus 58.8813 1.18809 -99.6117
rradius 7.74462
rwrist 64.8834
rhand -18.6266 10.8064
rfingers 7.12502
rthumb 7.66559 -19.0347
lclavicle 5.33232e-014 4.01545e-014
lhumerus 61.0809 1.33958 96.2032
lradius 8.54255
lwrist -66.2693
lhand -13.4055 7.15725
lfingers 7.12502
lthumb 12.7023 36.7509
rfemur 2.79144 14.7801 15.5791
rtibia 28.0506
rfoot -37.8644 -20.5441
rtoes -11.6913
lfemur -8.46495 -15.9488 -22.6718
ltibia 33.7262
lfoot -23.1074 5.07489
ltoes -1.02381
175
root -3.50153 17.2105 -2.85058 317.11 -80.7914 -324.405
lowerback 17.0836 -3.16615 -3.39951
upperback 0.0677616 -5.26108 -3.06523
thorax -9.51407 -2.47192 -0.0846897
lowerneck 3.48851 2.09492 -4.58445
upperneck 5.21065 2.56121 0.717336
head 0.95635 1.16256 0.975244
rclavicle 3.2114e-014 1.86858e-014
rhumerus 58.8633 1.32496 -99.5953
rradius 7.68239
rwrist 64.8804
rhand -18.5681 10.4803
rfingers 7.12502
rthumb 7.722 -19.3587
lclavicle 3.2114e-014 1.86858e-014
lhumerus 61.1181 1.34603 96.3197
lradius 8.50642
lwrist -66.3276
lhand -13.2445 7.37304
lfingers 7.12502
lthumb 12.8575 36.957
rfemur 3.09297 16.1084 15.9461
rtibia 27.6685
rfoot -38.8389 -21.3564
rtoes -11.2178
lfemur -8.37882 -16.4809 -22.818
ltibia 33.5036
lfoot -23.2835 5.65581
ltoes -1.0203
176
root -3.50918 17.2181 -2.85031 316.711 -80.7933 -323.91
lowerback 16.8211 -3.16204 -3.42269
upperback 0.042217 -5.25054 -3.10546
thorax -9.39624 -2.47024 -0.132536
lowerneck 3.50096 2.10388 -4.52591
upperneck 5.30386 2.57365 0.684184
head 0.983968 1.16716 0.955608
rclavicle -2.59158e-014 1.55052e-014
rhumerus 58.8383 1.44475 -99.6067
rradius 7.6303
rwrist 64.8454
rhand -18.5052 10.151
rfingers 7.12502
rthumb 7.78275 -19.6858
lclavicle -2.59158e-014 1.55052e-014
lhumerus 61.1204 1.36444 96.3878
lradius 8.52171
lwrist -66.4637
lhand -13.1476 7.46789
lfingers 7.12502
lthumb 12.9509 37.046
rfemur 3.34813 17.2423 16.2499
rtibia 27.3766
rfoot -39.6714 -22.0455
rtoes -10.8802
lfemur -8.28961 -16.928 -22.9595
ltibia 33.3214
lfoot -23.4221 6.16774
ltoes -1.04957
177
root -3.51569 17.2238 -2.85075 316.29 -80.8068 -323.403
lowerback 16.5893 -3.14084 -3.4473
upperback 0.0302814 -5.2182 -3.14083
thorax -9.28028 -2.45797 -0.177979
lowerneck 3.52333 2.10282 -4.48405
upperneck 5.34696 2.57195 0.664244
head 0.99436 1.16571 0.942384
rclavicle -8.66422e-015 -9.14409e-015
rhumerus 58.8514 1.52499 -99.5897
rradius 7.57706
rwrist 64.8148
rhand -18.3687 9.8266
rfingers 7.12502
rthumb 7.91452 -20.0052
lclavicle -8.66422e-015 -9.14409e-015
lhumerus 61.1517 1.35873 96.4689
lradius 8.51057
lwrist -66.6902
lhand -13.1973 7.59248
lfingers 7.12502
lthumb 12.903 37.1736
rfemur 3.52355 18.1325 16.477
rtibia 27.1768
rfoot -40.331 -22.5545
rtoes -10.6017
lfemur -8.22101 -17.2262 -23.0631
ltibia 33.1676
lfoot -23.5327 6.51961
ltoes -0.931018
178
root -3.52051 17.2296 -2.85066 315.827 -80.8031 -322.876
lowerback 16.4311 -3.12215 -3.4764
upperback 0.00773278 -5.19528 -3.1805
thorax -9.2175 -2.44863 -0.218482
lowerneck 3.53338 2.10281 -4.41296
upperneck 5.4256 2.57354 0.62035
head 1.01838 1.16543 0.917232
rclavicle 4.81338e-014 -1.74931e-014
rhumerus 58.8371 1.60332 -99.571
rradius 7.52938
rwrist 64.7519
rhand -18.2139 9.53708
rfingers 7.12502
rthumb 8.06388 -20.2891
lclavicle 4.81338e-014 -1.74931e-014
lhumerus 61.1818 1.3406 96.5604
lradius 8.46714
lwrist -66.9496
lhand -13.2625 7.71909
lfingers 7.12502
lthumb 12.8401 37.3042
rfemur 3.6338 18.7512 16.5964
rtibia 27.0451
rfoot -40.7897 -22.8638
rtoes -10.2229
lfemur -8.17066 -17.4546 -23.1772
ltibia 33.0444
lfoot -23.6162 6.85871
ltoes -0.984532
179
root -3.52375 17.2319 -2.85057 315.43 -80.81 -322.431
lowerback 16.3302 -3.10494 -3.4859
upperback -0.021194 -5.17364 -3.21558
thorax -9.19528 -2.43948 -0.261082
lowerneck 3.5496 2.10328 -4.39025
upperneck 5.50488 2.57249 0.626755
head 1.04061 1.1634 0.915996
rclavicle 6.94023e-014 2.22639e-014
rhumerus 58.8503 1.67139 -99.5443
rradius 7.4017
rwrist 64.6552
rhand -18.0601 9.21359
rfingers 7.12502
rthumb 8.21238 -20.6068
lclavicle 6.94023e-014 2.22639e-014
lhumerus 61.1988 1.34342 96.6405
lradius 8.41592
lwrist -67.2556
lhand -13.376 7.7558
lfingers 7.12502
lthumb 12.7308 37.3477
rfemur 3.67427 19.04 16.6214
rtibia 26.9739
rfoot -40.9816 -22.9942
rtoes -10.014
lfemur -8.12088 -17.6382 -23.2653
ltibia 32.9472
lfoot -23.6965 7.09625
ltoes -1.05046
